<svg id="Layer_1" data-name="Layer 1" xmlns="http://www.w3.org/2000/svg" viewBox="0 0 1562.3875 586.5885"><defs><style>.cls-1,.cls-11{fill:none;stroke-miterlimit:10;}.cls-1{stroke:#cccccb;}.cls-2{fill:#cccccb;}.cls-14,.cls-3,.cls-5,.cls-8{fill:#231f20;}.cls-16,.cls-4{fill:#fff;}.cls-5{font-size:12px;}.cls-5,.cls-8{font-family:ArialMT, Arial;}.cls-6{fill:#cb2026;}.cls-7{fill:#ffcd05;}.cls-8{font-size:20px;}.cls-9{fill:#fdd702;}.cls-10{fill:#278c43;}.cls-11{stroke:#fff;}.cls-12{fill:#186533;}.cls-13{fill:#49240f;}.cls-14{opacity:0.75;}.cls-15,.cls-16{opacity:0.5;}</style></defs><title>table</title><circle class="cls-1" cx="92.3622" cy="83.6751" r="62.3622"/><ellipse class="cls-2" cx="69.9751" cy="104.0736" rx="9.4839" ry="2.1404"/><ellipse class="cls-2" cx="91.8783" cy="120.3596" rx="44.4839" ry="2.1404"/><ellipse class="cls-2" cx="114.6203" cy="103.9332" rx="9.4839" ry="2.1404"/><ellipse class="cls-2" cx="92.3622" cy="75.1495" rx="9.4839" ry="2.1404"/><circle class="cls-3" cx="92.3622" cy="52.8914" r="22.2581"/><circle class="cls-4" cx="97.3622" cy="45.8914" r="8.9355"/><text class="cls-5" transform="matrix(0.7897, 0.6136, -0.6136, 0.7897, 92.4089, 46.7835)">8</text><circle class="cls-6" cx="114.6203" cy="81.6751" r="22.2581"/><circle class="cls-7" cx="70.1041" cy="81.6751" r="22.2581"/><text class="cls-8" transform="translate(48.8515 119.149)">TRILLIADS</text><rect class="cls-9" x="252" y="578.5885" width="11" height="8"/><rect class="cls-9" x="252" y="316.5885" width="11" height="8"/><path class="cls-9" d="M0,325.2756H10.5475A5.4525,5.4525,0,0,1,16,330.7281v10.5475a0,0,0,0,1,0,0H0a0,0,0,0,1,0,0v-16A0,0,0,0,1,0,325.2756Z" transform="translate(-325.2756 332.5885) rotate(-90)"/><path class="cls-9" d="M0,579.2756H10.3307A5.6693,5.6693,0,0,1,16,584.9449v10.3307a0,0,0,0,1,0,0H0a0,0,0,0,1,0,0v-16A0,0,0,0,1,0,579.2756Z" transform="translate(16 1165.8641) rotate(-180)"/><path class="cls-9" d="M499,579.2756h10.3307A5.6693,5.6693,0,0,1,515,584.9449v10.3307a0,0,0,0,1,0,0H499a0,0,0,0,1,0,0v-16A0,0,0,0,1,499,579.2756Z" transform="translate(1094.2756 71.5885) rotate(90)"/><path class="cls-9" d="M499,316.5885h10.3307A5.6693,5.6693,0,0,1,515,322.2578v10.3307a0,0,0,0,1,0,0H499a0,0,0,0,1,0,0v-16A0,0,0,0,1,499,316.5885Z"/><rect class="cls-10" x="8" y="323.5885" width="499" height="255"/><line class="cls-11" x1="114.5" y1="330.5885" x2="114.5" y2="572.5885"/><path class="cls-11" d="M114.5767,420.1183a39.4563,39.4563,0,0,0,0,78.9126" transform="translate(0 -8.6871)"/><circle cx="257.5" cy="324.0885" r="5.5"/><circle cx="11.5" cy="328.0885" r="5.5"/><circle cx="12.5" cy="575.0885" r="5.5"/><circle cx="257.5" cy="578.0885" r="5.5"/><circle cx="503.5" cy="575.0885" r="5.5"/><circle cx="503.5" cy="328.0885" r="5.5"/><polygon class="cls-12" points="16.094 324.588 24.604 330.588 247.827 330.588 252 325.922 252 324.588 16.094 324.588"/><polygon class="cls-12" points="498.383 324.588 489.891 330.588 267.164 330.588 263 325.922 263 324.588 498.383 324.588"/><polygon class="cls-12" points="498.707 578.588 490.204 572.588 267.17 572.588 263 577.255 263 578.588 498.707 578.588"/><polygon class="cls-12" points="16.505 578.588 25.001 572.588 247.834 572.588 252 577.255 252 578.588 16.505 578.588"/><polygon class="cls-12" points="8 332.072 14 340.645 14 565.506 8 570.911 8 569.71 8 332.072"/><polygon class="cls-12" points="507 570.75 501 562.17 501 337.127 507 331.718 507 332.92 507 570.75"/><rect class="cls-13" x="263" y="316.5885" width="236" height="8"/><rect class="cls-13" x="16" y="316.5885" width="236" height="8"/><rect class="cls-13" x="263" y="578.5885" width="236" height="8"/><rect class="cls-13" x="391.5" y="455.7756" width="239" height="8" transform="translate(51.2244 962.0885) rotate(-90)"/><rect class="cls-13" x="-115.5" y="455.7756" width="239" height="8" transform="translate(-455.7756 455.0885) rotate(-90)"/><rect class="cls-13" x="17" y="578.5885" width="235" height="8"/><circle class="cls-14" cx="398.1452" cy="451.0885" r="1.5"/><rect class="cls-9" x="1290.8875" y="262.1871" width="11" height="8" transform="translate(1562.5746 -1038.8875) rotate(90)"/><rect class="cls-9" x="1552.8875" y="262.1871" width="11" height="8" transform="translate(1824.5746 -1300.8875) rotate(90)"/><path class="cls-9" d="M1546.3875,0h10.5475a5.4525,5.4525,0,0,1,5.4525,5.4525V16a0,0,0,0,1,0,0h-16a0,0,0,0,1,0,0V0A0,0,0,0,1,1546.3875,0Z"/><path class="cls-9" d="M1292.3875,8.6871h10.3307a5.6693,5.6693,0,0,1,5.6693,5.6693V24.6871a0,0,0,0,1,0,0h-16a0,0,0,0,1,0,0v-16A0,0,0,0,1,1292.3875,8.6871Z" transform="translate(1283.7004 1308.3875) rotate(-90)"/><path class="cls-9" d="M1292.3875,507.6871h10.3307a5.6693,5.6693,0,0,1,5.6693,5.6693v10.3307a0,0,0,0,1,0,0h-16a0,0,0,0,1,0,0v-16A0,0,0,0,1,1292.3875,507.6871Z" transform="translate(2600.7751 1022.6871) rotate(-180)"/><path class="cls-9" d="M1546.3875,507.6871h10.3307a5.6693,5.6693,0,0,1,5.6693,5.6693v10.3307a0,0,0,0,1,0,0h-16a0,0,0,0,1,0,0v-16A0,0,0,0,1,1546.3875,507.6871Z" transform="translate(2070.0746 -1047.3875) rotate(90)"/><rect class="cls-10" x="1178.3875" y="138.6871" width="499" height="255" transform="translate(1694.0746 -1170.3875) rotate(90)"/><line class="cls-11" x1="1548.3875" y1="114.5" x2="1306.3875" y2="114.5"/><path class="cls-11" d="M1467.5448,123.2638a39.4563,39.4563,0,1,0-78.9126,0" transform="translate(0 -8.6871)"/><circle cx="1554.8875" cy="257.5" r="5.5"/><circle cx="1550.8875" cy="11.5" r="5.5"/><circle cx="1303.8875" cy="12.5" r="5.5"/><circle cx="1300.8875" cy="257.5" r="5.5"/><circle cx="1303.8875" cy="503.5" r="5.5"/><circle cx="1550.8875" cy="503.5" r="5.5"/><polygon class="cls-12" points="1554.388 16.094 1548.388 24.604 1548.388 247.827 1553.054 252 1554.388 252 1554.388 16.094"/><polygon class="cls-12" points="1554.388 498.383 1548.388 489.891 1548.388 267.164 1553.054 263 1554.388 263 1554.388 498.383"/><polygon class="cls-12" points="1300.388 498.707 1306.388 490.204 1306.388 267.17 1301.721 263 1300.388 263 1300.388 498.707"/><polygon class="cls-12" points="1300.388 16.505 1306.388 25.001 1306.388 247.834 1301.721 252 1300.388 252 1300.388 16.505"/><polygon class="cls-12" points="1546.904 8 1538.331 14 1313.47 14 1308.065 8 1309.266 8 1546.904 8"/><polygon class="cls-12" points="1308.226 507 1316.806 501 1541.849 501 1547.258 507 1546.056 507 1308.226 507"/><rect class="cls-13" x="1440.3875" y="385.6871" width="236" height="8" transform="translate(1948.0746 -1177.3875) rotate(90)"/><rect class="cls-13" x="1440.3875" y="138.6871" width="236" height="8" transform="translate(1701.0746 -1424.3875) rotate(90)"/><rect class="cls-13" x="1178.3875" y="385.6871" width="236" height="8" transform="translate(1686.0746 -915.3875) rotate(90)"/><rect class="cls-13" x="1308.3875" y="507" width="239" height="8"/><rect class="cls-13" x="1308.3875" width="239" height="8"/><rect class="cls-13" x="1178.8875" y="139.1871" width="235" height="8" transform="translate(1439.5746 -1161.8875) rotate(90)"/><circle class="cls-14" cx="1427.8875" cy="398.1452" r="1.5"/><circle class="cls-14" cx="397.8015" cy="451.4917" r="1.5"/><circle cx="397.8015" cy="451.4917" r="3.5433"/><circle class="cls-7" cx="385.5112" cy="451.4917" r="3.5433"/><circle class="cls-7" cx="403.993" cy="455.035" r="3.5433"/><circle class="cls-7" cx="403.993" cy="447.9484" r="3.5433"/><circle class="cls-6" cx="403.993" cy="462.1216" r="3.5433"/><circle class="cls-6" cx="397.8015" cy="458.5783" r="3.5433"/><circle class="cls-7" cx="397.8015" cy="444.4051" r="3.5433"/><circle class="cls-6" cx="410.1602" cy="444.4051" r="3.5433"/><circle class="cls-7" cx="410.1602" cy="437.3185" r="3.5433"/><circle class="cls-6" cx="410.1602" cy="451.4917" r="3.5433"/><circle class="cls-6" cx="410.1602" cy="458.5783" r="3.5433"/><circle class="cls-7" cx="410.1602" cy="465.6649" r="3.5433"/><circle class="cls-6" cx="403.993" cy="440.8618" r="3.5433"/><circle class="cls-6" cx="391.6542" cy="455.035" r="3.5433"/><circle class="cls-7" cx="391.6542" cy="447.9484" r="3.5433"/><path class="cls-15" d="M385.5112,463.7221a3.5433,3.5433,0,0,0,3.5433-3.5433,4.3807,4.3807,0,0,1-1.4022,2.0887A4.7149,4.7149,0,0,1,385.5112,463.7221Z" transform="translate(0 -8.6871)"/><path class="cls-15" d="M391.6542,467.2654a3.5433,3.5433,0,0,0,3.5434-3.5433,4.3817,4.3817,0,0,1-1.4022,2.0887A4.7149,4.7149,0,0,1,391.6542,467.2654Z" transform="translate(0 -8.6871)"/><path class="cls-15" d="M391.6542,460.1788a3.5433,3.5433,0,0,0,3.5434-3.5433,4.3817,4.3817,0,0,1-1.4022,2.0887A4.7149,4.7149,0,0,1,391.6542,460.1788Z" transform="translate(0 -8.6871)"/><path class="cls-15" d="M397.8015,456.6355a3.5433,3.5433,0,0,0,3.5433-3.5433,4.3812,4.3812,0,0,1-1.4022,2.0887A4.7149,4.7149,0,0,1,397.8015,456.6355Z" transform="translate(0 -8.6871)"/><path class="cls-16" d="M397.8015,463.7221a3.5433,3.5433,0,0,0,3.5433-3.5433,4.3807,4.3807,0,0,1-1.4022,2.0887A4.7149,4.7149,0,0,1,397.8015,463.7221Z" transform="translate(0 -8.6871)"/><path class="cls-15" d="M397.8015,470.8087a3.5433,3.5433,0,0,0,3.5433-3.5433,4.3807,4.3807,0,0,1-1.4022,2.0887A4.7149,4.7149,0,0,1,397.8015,470.8087Z" transform="translate(0 -8.6871)"/><path class="cls-15" d="M403.993,474.352a3.5432,3.5432,0,0,0,3.5433-3.5433,4.3807,4.3807,0,0,1-1.4022,2.0887A4.7149,4.7149,0,0,1,403.993,474.352Z" transform="translate(0 -8.6871)"/><path class="cls-15" d="M403.993,467.2654a3.5433,3.5433,0,0,0,3.5433-3.5433,4.3807,4.3807,0,0,1-1.4022,2.0887A4.7149,4.7149,0,0,1,403.993,467.2654Z" transform="translate(0 -8.6871)"/><path class="cls-15" d="M410.1844,470.8087a3.5433,3.5433,0,0,0,3.5433-3.5433,4.3807,4.3807,0,0,1-1.4022,2.0887A4.7144,4.7144,0,0,1,410.1844,470.8087Z" transform="translate(0 -8.6871)"/><path class="cls-15" d="M403.993,460.1788a3.5433,3.5433,0,0,0,3.5433-3.5433,4.3807,4.3807,0,0,1-1.4022,2.0887A4.7149,4.7149,0,0,1,403.993,460.1788Z" transform="translate(0 -8.6871)"/><path class="cls-15" d="M403.993,453.0922a3.5433,3.5433,0,0,0,3.5433-3.5433,4.3812,4.3812,0,0,1-1.4022,2.0887A4.7149,4.7149,0,0,1,403.993,453.0922Z" transform="translate(0 -8.6871)"/><path class="cls-15" d="M410.1844,456.6355a3.5433,3.5433,0,0,0,3.5433-3.5433,4.3812,4.3812,0,0,1-1.4022,2.0887A4.7144,4.7144,0,0,1,410.1844,456.6355Z" transform="translate(0 -8.6871)"/><path class="cls-15" d="M410.1844,463.7221a3.5433,3.5433,0,0,0,3.5433-3.5433,4.3807,4.3807,0,0,1-1.4022,2.0887A4.7144,4.7144,0,0,1,410.1844,463.7221Z" transform="translate(0 -8.6871)"/><path class="cls-15" d="M410.1844,477.8954a3.5433,3.5433,0,0,0,3.5433-3.5434,4.3811,4.3811,0,0,1-1.4022,2.0888A4.7155,4.7155,0,0,1,410.1844,477.8954Z" transform="translate(0 -8.6871)"/><path class="cls-15" d="M410.1844,449.5489a3.5433,3.5433,0,0,0,3.5433-3.5433,4.3812,4.3812,0,0,1-1.4022,2.0887A4.7144,4.7144,0,0,1,410.1844,449.5489Z" transform="translate(0 -8.6871)"/><circle class="cls-4" cx="74.823" cy="451.8949" r="2.8346"/><path class="cls-15" d="M74.823,463.4167a2.8347,2.8347,0,0,0,2.8347-2.8347,3.5054,3.5054,0,0,1-1.1218,1.671A3.7713,3.7713,0,0,1,74.823,463.4167Z" transform="translate(0 -8.6871)"/></svg>